<?xml version="1.0" encoding="UTF-8"?>
<svg id="Capa_1" xmlns="http://www.w3.org/2000/svg" version="1.1" viewBox="0 0 24 24">
  <!-- Generator: Adobe Illustrator 29.5.1, SVG Export Plug-In . SVG Version: 2.1.0 Build 141)  -->
  <defs>
    <style>
      .st0 {
        fill: #fff;
      }
    </style>
  </defs>
  <path class="st0" d="M12,0C5.4,0,0,5.4,0,12s5.4,12,12,12,12-5.4,12-12S18.66,0,12,0ZM17.52,17.34c-.24.36-.66.48-1.02.24-2.82-1.74-6.36-2.1-10.56-1.14-.42.12-.78-.18-.9-.54-.12-.42.18-.78.54-.9,4.56-1.02,8.52-.6,11.64,1.32.42.18.48.66.3,1.02ZM18.96,14.04c-.3.42-.84.6-1.26.3-3.24-1.98-8.16-2.58-11.94-1.38-.48.12-1.02-.12-1.14-.6-.12-.48.12-1.02.6-1.14,4.38-1.32,9.78-.66,13.5,1.62.36.18.54.78.24,1.2ZM19.08,10.68c-3.84-2.28-10.26-2.52-13.92-1.38-.6.18-1.2-.18-1.38-.72-.18-.6.18-1.2.72-1.38,4.26-1.26,11.28-1.02,15.72,1.62.54.3.72,1.02.42,1.56-.3.42-1.02.6-1.56.3Z"/>
</svg>